<?xml version="1.0" encoding="utf-8"?>

<svg xmlns="http://www.w3.org/2000/svg" xmlns:xlink="http://www.w3.org/1999/xlink" 
  height="512" width="512" viewBox="0 0 512 512">

  <image href="https://s0.gifyu.com/images/hello_kitty_Hello_Kitty_Head_ClipArt_in_PNG_File.png" height="512" width="512" />

  <rect width="512" height="512" stroke="red" fill="rgba(255,255,255,0.95)" opacity="0.95" ></rect>

  <text x="2" y="12" font-size="12" text-anchor="start" fill="red">0</text>
  <path d="M256  64 H0 H512" stroke="lightgray" fill="white"></path>
  <text x="2" y="68" font-size="12" text-anchor="start" fill="red">64</text>
  <path d="M256 128 H0 H512" stroke="lightgray" fill="white"></path>
  <text x="2" y="132" font-size="12" text-anchor="start" fill="red">128</text>
  <path d="M256 192 H0 H512" stroke="lightgray" fill="white"></path>
  <text x="2" y="196" font-size="12" text-anchor="start" fill="red">192</text>
  <path d="M256 256 H0 H512" stroke="lightgray" fill="white"></path>
  <text x="2" y="260" font-size="12" text-anchor="start" fill="red">256</text>
  <path d="M256 320 H0 H512" stroke="lightgray" fill="white"></path>
  <text x="2" y="324" font-size="12" text-anchor="start" fill="red">320</text>
  <path d="M256 384 H0 H512" stroke="lightgray" fill="white"></path>
  <text x="2" y="388" font-size="12" text-anchor="start" fill="red">384</text>
  <path d="M256 448 H0 H512" stroke="lightgray" fill="white"></path>
  <text x="2" y="452" font-size="12" text-anchor="start" fill="red">448</text>
  <text x="2" y="510" font-size="12" text-anchor="start" fill="red">512</text>

  <path d="M64  0 V512" stroke="lightgray" fill="white"></path>
  <text x="58" y="12" font-size="12" text-anchor="start" fill="red">64</text>
  <path d="M128  0 V512" stroke="lightgray" fill="white"></path>
  <text x="118" y="12" font-size="12" text-anchor="start" fill="red">128</text>
  <path d="M195  0 V512" stroke="lightgray" fill="white"></path>
  <text x="186" y="12" font-size="12" text-anchor="start" fill="red">192</text>
  <path d="M256  0 V512" stroke="lightgray" fill="white"></path>
  <text x="246" y="12" font-size="12" text-anchor="start" fill="red">256</text>
  <path d="M320  0 V512" stroke="lightgray" fill="white"></path>
  <text x="310" y="12" font-size="12" text-anchor="start" fill="red">320</text>
  <path d="M384  0 V512" stroke="lightgray" fill="white"></path>
  <text x="374" y="12" font-size="12" text-anchor="start" fill="red">384</text>
  <path d="M448  0 V512" stroke="lightgray" fill="white"></path>
  <text x="438" y="12" font-size="12" text-anchor="start" fill="red">448</text>
  <text x="492" y="12" font-size="12" text-anchor="start" fill="red">512</text>

  <path d="M256 256 V270 V242 M256 256 H270 H242" stroke="black" fill="white"></path>

  <!-- My Write Start -->
  <path d="M180 128 A50  100, 100, 0, 0, 100 103" stroke-width="5" stroke="#F00" fill="none" opacity="0.3"/>
  <path d="M100 103 A100 150, 120, 0, 0,  83 190" stroke-width="5" stroke="#F00" fill="none" opacity="0.3"/>
  <path d="M83  190 A200 147,   5, 1, 0, 440 227" stroke-width="5" stroke="#F00" fill="none" opacity="0.3"/>
  <path d="M440 227 A100 200,  75, 0, 0, 455 160" stroke-width="5" stroke="#F00" fill="none" opacity="0.3"/>
  <path d="M455 160 A100 200,  15, 0, 0, 435 155" stroke-width="5" stroke="#F00" fill="none" opacity="0.3"/>
  <path d="M435 155 A200 145,   0, 0, 0, 418  95" stroke-width="5" stroke="#F00" fill="none" opacity="0.3"/>
  <path d="M418  95 A200 145,  40, 0, 0, 350 115" stroke-width="5" stroke="#F00" fill="none" opacity="0.3"/>
  <path d="M348 115 A65  145,   0, 0, 0, 270 120" stroke-width="5" stroke="#F00" fill="none" opacity="0.3"/>
  <path d="M268 120 A200 145,   5, 0, 0, 180 128" stroke-width="5" stroke="#F00" fill="none" opacity="0.3"/>
  
  <!-- 起點紅點 start red point -->
  <circle id="c1" cx="180" cy="128" r="1" stroke="red" fill="none">
    <animate attributeName="r" to="10" dur="2s" repeatCount="indefinite"/>
  </circle>
  <text x="180" y="120" font-size="16" text-anchor="middle" fill="red">(180, 128)</text>
  <!-- 環繞周圍 -->
  <circle cx="0" cy="0" r="1" stroke="blue" fill="none">
    <animateMotion dur="6s" path="M180 128 A50  100, 100, 0, 0, 100 103,
                                  M100 103 A100 150, 120, 0, 0,  83 190,
                                  M83  190 A200 147,   5, 1, 0, 440 227,
                                  M440 227 A100 200,  75, 0, 0, 455 160,
                                  M455 160 A100 200,  15, 0, 0, 435 155,
                                  M435 155 A200 145,   0, 0, 0, 418  95,
                                  M418  95 A200 145,  40, 0, 0, 350 115,
                                  M348 115 A65  145,   0, 0, 0, 270 120,
                                  M268 120 A200 145,   5, 0, 0, 180 128" repeatCount="indefinite" rotate="auto"/>
    <animate attributeName="r" to="15" dur="6s" repeatCount="indefinite"/>
  </circle>

  <!-- My Write End -->
</svg>
    