<?xml version="1.0" standalone="no"?>
<!DOCTYPE svg PUBLIC "-//W3C//DTD SVG 1.1//EN" "http://www.w3.org/Graphics/SVG/1.1/DTD/svg11.dtd" >
<svg xmlns="http://www.w3.org/2000/svg" xmlns:xlink="http://www.w3.org/1999/xlink" version="1.1" viewBox="-10 0 270 256">
   <path fill="currentColor"
d="M146 12q4 5 10 9q3 3 1 8q-5 13 -7 37q1 0 6 -1q6 -1 7 -2q3 -1 4 -4q-1 -3 6 -3q2 1 4 1q8 1 13 2q1 3 -1 4q-10 2 -40 10q-2 13 -4 46v4q12 -3 39 -12l-6 -16q-4 -2 1 -1q14 7 21 27q-1 5 -7 4q-3 -1 -8 -7q-3 1 -16 4q-19 5 -24 6q-5 57 10 66q27 13 74 5q6 -1 3 -10
q-1 -1 -3 -5q-4 -10 -4 -11q-1 -3 1 -2l8 8q9 11 14 13q2 1 2 2q0 4 -3 4q-49 18 -93 4q-18 -6 -16 -72q-25 8 -39 19q-5 4 -7 -2q-1 -7 5 -8q6 0 7 -6q5 -16 4 -29q0 -1 1 -1t2 1q1 5 2 8q3 4 3 6q-3 6 -4 13q-1 4 5 2q3 -1 10 -4q8 -3 11 -4q0 -7 3 -50q-10 3 -17 4
q-8 1 -16 0q-2 0 -2 -1t3 -2q14 -2 32 -8q2 -27 3 -32q1 -16 -1 -22q-1 -2 0 -2q0 -1 3 0zM66 23q4 5 8 8v1q2 3 -2 4q-7 2 -38 85q8 -4 21 -14q8 -6 13 -9q12 -20 12 -31q-1 -1 0 -2h3q2 2 5 3q2 2 5 3q2 1 2 3t-2 3q-22 14 -38 65q2 0 7 -4q4 -3 7 -4q6 -4 2 1
q-6 6 -14 15l-1 2q-3 4 -5 -1q-5 -5 -1 -13q4 -10 8 -18l7 -14q-26 18 -35 26q-4 3 -4 -1q-2 -5 3 -8q13 -44 28 -82q5 -11 5 -16q-1 -2 0 -2q1 -1 4 0zM83 121q2 2 6 4q3 2 4 2q2 4 -1 6q-6 -3 -24 21q-6 6 -2 0q11 -17 15 -23q1 -5 0 -7q-2 -2 -1 -2q0 -1 3 -1zM95 167
q1 2 4 4q3 3 5 3q9 4 10 13q0 4 -5 2q-7 -4 -5 -5q1 -1 -2 -4q-2 -1 -6 -7q-2 -2 -3 -4q-2 -4 2 -2zM71 181q2 12 8 14q1 3 -3 5q-6 0 -11 -15q1 -4 6 -4zM45 191q2 -2 1 2q-4 10 0 12q0 6 -4 5q-9 -8 3 -19z" />
</svg>
