<?xml version="1.0" standalone="no"?>
<!DOCTYPE svg PUBLIC "-//W3C//DTD SVG 1.1//EN" "http://www.w3.org/Graphics/SVG/1.1/DTD/svg11.dtd" >
<svg xmlns="http://www.w3.org/2000/svg" xmlns:xlink="http://www.w3.org/1999/xlink" version="1.1" viewBox="-10 0 266 256">
   <path fill="currentColor"
d="M49 31q21 4 28 8q2 2 0 5t-4 1q-8 -5 -16 -3q-5 1 -5 0l2 -2q3 -2 -7 -7q-3 -1 2 -2zM49 93h2q5 -2 10 -1q4 4 -2 7q-20 5 -40 0q-5 -2 -1 -2q17 3 31 -4zM80 132q-13 25 -28 58q-2 5 -2 6q-1 1 -1 2q-1 2 -2 0q-1 0 -1 -1q-4 -1 -7 -6q-3 -3 1 -4q4 2 10 -9q5 -8 14 -23
q8 -15 14 -24q5 -7 2 1zM142 42q6 4 9 8q3 5 -1 6q-5 1 -6 3q-1 1 -2 3q-10 11 -17 18q-6 1 3 22q11 -2 27 -13q6 -7 18 -6q2 1 1 5q-3 4 -6 5q-7 3 -11 7q-5 5 -4 1q-1 -1 -5 0q-9 3 -19 4q2 10 6 10q1 2 4 4q2 1 3 1q7 0 12 -5q11 -8 19 -8q3 3 0 6q-7 2 -20 10q6 8 18 -2
q18 -15 18 -46q0 -9 -9 -9q-8 0 -25 7q-11 4 -18 4q-2 0 -2 -1t2 -2q26 -10 43 -13q7 -1 13 5q6 8 11 11q4 5 -2 7q-1 1 -3 2q-3 3 -4 5q-13 36 -31 41q-7 2 -14 -8q-1 0 -3 1t-2 0q1 6 -5 5t-8 -5t-7 -7q-4 0 1 -10q-5 -15 -9 -22l-1 -1q-1 -3 0 -7q1 -3 5 -4q3 -1 6 -5
q8 -8 13 -16q2 -5 0 -8q-1 -2 -1 -3h3zM185 3q3 1 2 1q10 2 15 4q2 1 2 4q1 4 -9 3q-7 0 -22 3q-18 2 -43 21q-3 2 -8 5q-6 4 -8 5l-3 2q0 1 2 2q3 5 3 7v1q-1 2 -4 1q-4 0 -5 9q-16 107 -46 146q-4 1 -1 -1q31 -60 41 -144q1 -10 0 -14q-1 0 -1 -1q-4 -5 -1 -8q0 -2 5 -2
t20 -10q2 -2 7 -5q9 -6 13 -10q1 -1 -1 -1q-3 1 -25 8q-1 1 -2 1q-3 1 -4 2q-4 4 -11 2q-6 -1 -13 -4q-3 -1 1 -2q3 1 25 -4q8 -1 24 -5q13 -3 19 -4q23 -5 24 -10q1 -2 4 -2zM186 152q-2 -1 -2 -3q0 -1 2 -1q31 15 41 27q4 9 -2 9q-10 0 -14 -6q-7 -13 -25 -26zM114 161
q1 -1 2 2q-3 14 0 12q3 -1 2 2q-2 3 2 7q1 7 -5 7q-5 0 -7 -10q-3 -3 0 -5q1 -2 1 -7t5 -8zM149 138q-1 -2 1 -1q11 8 9 13q-3 5 0 49q0 5 2 16q-2 3 -6 2q-3 -8 -8 -14q-5 -9 -7 -16q-1 -4 2 -1q6 8 11 13q2 4 2 -2q0 -8 -2 -24v-16q-2 -12 -4 -19z" />
</svg>
